<?xml version="1.0" standalone="no"?>
<!DOCTYPE svg PUBLIC "-//W3C//DTD SVG 20010904//EN"
 "http://www.w3.org/TR/2001/REC-SVG-20010904/DTD/svg10.dtd">
<svg version="1.0" xmlns="http://www.w3.org/2000/svg"
 width="808.000000pt" height="808.000000pt" viewBox="0 0 808.000000 808.000000"
 preserveAspectRatio="xMidYMid meet">
<metadata>
Created by potrace 1.11, written by Peter Selinger 2001-2013
</metadata>
<g transform="translate(0.000000,808.000000) scale(0.100000,-0.100000)"
fill="#000000" stroke="none">
<path d="M3625 8045 c-5 -3 -84 -9 -175 -15 -210 -12 -484 -43 -675 -75 -215
-37 -295 -52 -380 -71 -38 -8 -90 -19 -115 -24 -41 -8 -253 -63 -405 -104
-214 -59 -638 -204 -790 -271 -16 -7 -64 -27 -105 -43 -94 -39 -299 -132 -455
-208 -131 -64 -203 -153 -227 -280 -33 -182 75 -358 257 -416 16 -6 59 -13 95
-16 l65 -7 423 -846 424 -847 -12 -68 c-35 -191 -19 -412 39 -559 100 -251
273 -437 517 -558 l64 -31 886 -1773 c668 -1336 893 -1777 913 -1790 40 -27
104 -23 136 7 17 15 204 379 480 930 397 794 457 907 485 924 55 32 168 146
213 215 84 128 115 229 123 399 l5 114 972 1941 972 1942 60 6 c161 16 265 86
327 219 26 55 31 77 31 145 0 119 -30 190 -114 272 -48 46 -303 174 -559 280
-40 16 -60 25 -110 46 -19 8 -62 24 -95 37 -33 12 -87 33 -120 45 -118 46
-201 75 -213 75 -7 0 -20 4 -30 10 -17 9 -234 78 -332 104 -30 8 -80 22 -110
31 -30 8 -73 19 -95 24 -22 5 -78 19 -125 30 -47 12 -105 25 -130 30 -25 5
-76 16 -115 24 -298 64 -649 113 -975 138 -129 10 -1007 22 -1025 14z m975
-245 c200 -18 413 -40 485 -51 272 -41 341 -53 540 -94 86 -18 367 -87 450
-110 28 -7 75 -20 106 -29 59 -16 441 -141 474 -155 11 -5 38 -15 60 -24 345
-130 752 -316 797 -364 19 -20 23 -36 23 -85 0 -56 -2 -62 -37 -94 -52 -48
-95 -46 -205 7 -262 125 -282 132 -330 115 -48 -16 -75 -54 -77 -105 -1 -61
26 -89 147 -149 l106 -53 -54 -109 c-30 -60 -59 -111 -65 -115 -6 -4 -39 2
-73 13 -115 38 -151 44 -287 49 -157 6 -330 -8 -630 -52 -173 -26 -471 -31
-557 -10 -135 32 -249 87 -445 213 -65 42 -187 121 -271 175 -356 230 -610
309 -851 266 -60 -10 -216 -55 -246 -70 -8 -5 -53 -26 -99 -49 -77 -38 -197
-112 -526 -325 -135 -88 -255 -152 -340 -180 -126 -43 -154 -46 -375 -44 -238
4 -247 2 -276 -59 -23 -49 -11 -106 29 -136 59 -43 319 -60 498 -31 101 16
184 36 195 48 4 4 13 7 20 7 18 0 158 66 239 113 60 34 366 232 447 288 86 60
273 153 368 182 71 23 104 27 194 27 111 0 127 -3 251 -47 112 -41 207 -95
510 -293 232 -152 446 -270 488 -270 7 0 17 -3 21 -7 11 -12 94 -32 195 -48
152 -24 279 -19 576 21 110 15 183 24 345 44 116 14 240 12 335 -4 117 -21
140 -29 143 -54 2 -13 -311 -651 -793 -1614 -438 -876 -800 -1597 -804 -1601
-5 -5 -31 21 -60 57 -58 75 -138 141 -179 151 -35 7 -68 -5 -109 -39 -60 -51
-51 -118 25 -188 127 -116 182 -234 182 -395 0 -221 -136 -402 -360 -478 -65
-22 -213 -20 -281 4 -95 32 -142 62 -209 130 -65 66 -87 101 -122 196 -20 56
-26 269 -8 280 6 3 10 16 10 28 0 30 65 138 115 192 61 66 207 145 267 145 9
0 33 16 53 36 35 34 37 39 31 81 -11 84 -73 133 -149 118 -94 -19 -207 -70
-293 -135 -54 -41 -157 -151 -178 -192 -7 -12 -23 -43 -37 -68 -29 -53 -53
-123 -69 -200 -12 -57 -9 -247 5 -288 7 -20 -10 -40 -125 -157 -130 -131 -133
-135 -138 -184 -4 -49 -3 -53 32 -86 28 -26 46 -35 72 -35 50 0 79 19 169 109
44 45 86 81 95 80 8 0 34 -25 58 -55 68 -86 206 -180 327 -223 54 -19 183 -41
240 -41 30 0 55 -3 55 -6 0 -10 -659 -1326 -671 -1341 -6 -7 -15 -13 -19 -13
-15 0 -1194 2370 -1184 2379 5 5 79 32 164 61 85 28 170 58 188 66 45 21 67
59 66 113 -1 37 -7 49 -32 73 -51 44 -69 44 -209 -1 -71 -23 -137 -46 -148
-50 -43 -18 -121 -41 -137 -41 -11 0 -53 74 -142 251 -69 139 -123 256 -120
260 3 5 25 9 50 9 117 0 326 51 436 106 493 248 693 829 459 1329 -56 120 -99
147 -195 125 -62 -14 -75 -31 -76 -99 0 -52 25 -131 42 -131 4 0 8 -8 8 -18 0
-10 3 -22 7 -26 11 -11 34 -84 45 -146 21 -110 10 -292 -22 -365 -7 -16 -17
-41 -22 -55 -21 -53 -57 -118 -75 -138 -7 -7 -13 -18 -13 -22 0 -29 -215 -210
-250 -210 -5 0 -10 -4 -10 -10 0 -5 -8 -10 -17 -10 -10 0 -27 -7 -37 -15 -11
-8 -30 -15 -42 -15 -13 0 -25 -4 -28 -9 -20 -31 -426 -31 -426 0 0 5 -10 9
-23 9 -13 0 -32 7 -43 15 -10 8 -27 15 -36 15 -10 0 -18 5 -18 10 0 6 -7 10
-15 10 -52 0 -261 204 -298 290 -4 8 -11 22 -16 30 -15 26 -30 64 -46 120 -9
30 -21 71 -26 90 -15 49 -6 224 15 295 10 33 20 72 23 88 3 15 9 27 14 27 5 0
9 8 9 19 0 10 7 24 15 31 8 7 15 17 15 22 0 28 179 238 203 238 5 0 23 10 40
23 44 31 139 77 159 77 9 0 20 5 23 10 3 6 22 10 41 10 19 0 51 7 71 15 20 9
66 15 110 15 43 0 89 -6 110 -15 19 -8 50 -15 69 -15 18 0 35 -4 38 -9 3 -5
16 -11 28 -14 13 -3 47 -14 77 -25 60 -21 104 -13 142 24 24 24 29 129 8 162
-41 65 -297 142 -474 142 -186 0 -401 -67 -562 -176 -65 -44 -243 -215 -243
-234 0 -5 -9 -14 -19 -20 -18 -9 -30 11 -140 233 -105 209 -130 267 -118 267
19 0 264 93 277 105 49 45 45 133 -7 175 -38 30 -92 25 -224 -20 -177 -60
-160 -68 -252 118 -42 86 -77 162 -77 168 0 7 21 18 48 27 93 29 199 40 331
34 147 -6 177 4 208 68 22 47 6 105 -40 137 -31 22 -40 23 -227 23 -198 0
-212 -2 -363 -47 -38 -11 -70 -18 -72 -16 -13 13 -105 205 -105 219 0 9 14 23
33 32 76 36 168 77 172 77 2 0 43 18 90 40 47 22 90 40 96 40 5 0 17 4 27 9
25 14 112 48 168 67 27 9 63 22 79 29 43 20 304 105 410 135 276 78 443 118
655 159 627 119 1223 154 1875 111 572 -37 1168 -154 1740 -342 50 -16 99 -33
110 -37 11 -5 33 -14 48 -20 65 -26 116 -32 152 -17 38 16 75 68 75 104 0 28
-22 71 -46 93 -17 15 -243 99 -319 119 -16 4 -57 17 -90 28 -142 46 -306 90
-545 145 -177 41 -413 84 -575 106 -448 60 -547 66 -1060 66 -542 0 -742 -14
-1195 -86 -314 -50 -705 -142 -1000 -235 -41 -13 -91 -29 -110 -35 -19 -6 -65
-22 -102 -35 -38 -13 -101 -36 -140 -50 -40 -14 -86 -32 -103 -38 -16 -7 -46
-19 -65 -26 -19 -7 -55 -21 -79 -32 -24 -11 -64 -27 -90 -38 -25 -10 -81 -34
-124 -54 -43 -20 -80 -36 -81 -36 -2 0 -60 -27 -129 -60 -158 -75 -191 -78
-248 -21 -34 34 -39 44 -39 85 0 49 12 82 39 104 28 22 319 161 466 222 62 26
102 43 120 51 41 18 262 101 320 121 33 10 69 23 80 28 43 17 278 91 390 122
22 6 60 16 85 23 64 19 320 80 415 100 44 9 98 20 120 25 22 5 58 12 80 15 22
4 78 13 125 21 271 47 608 82 895 94 231 10 777 4 935 -10z"/>
<path d="M3980 6150 c-19 -10 -123 -108 -232 -217 -218 -221 -228 -236 -192
-310 24 -48 57 -65 113 -59 42 4 53 13 257 217 184 184 214 218 219 250 8 48
-9 86 -54 116 -41 28 -65 28 -111 3z"/>
<path d="M4835 5784 c-11 -2 -45 -10 -75 -16 -30 -7 -84 -27 -120 -45 -409
-206 -462 -766 -100 -1044 193 -148 450 -168 672 -52 70 37 178 141 227 218
63 100 91 199 91 326 0 86 -5 121 -24 181 -83 253 -300 421 -561 433 -49 2
-99 2 -110 -1z m183 -263 c9 -5 39 -19 65 -31 54 -25 124 -92 148 -141 9 -19
22 -46 29 -61 8 -17 13 -65 13 -118 0 -53 -5 -101 -13 -118 -7 -15 -20 -42
-29 -60 -28 -58 -60 -74 -133 -66 -219 23 -422 236 -429 449 -2 49 1 60 24 81
14 13 30 24 35 24 5 0 15 7 22 15 7 8 23 15 36 15 13 0 24 5 24 10 0 12 183
14 208 1z"/>
<path d="M6005 5781 c-11 -5 -31 -21 -45 -36 l-25 -27 0 -231 c0 -215 1 -234
20 -258 36 -48 92 -61 144 -35 58 31 61 44 61 294 l0 228 -27 33 c-30 35 -88
49 -128 32z"/>
<path d="M2459 5038 c-58 -32 -69 -61 -69 -185 0 -123 11 -150 73 -183 47 -25
81 -25 123 1 64 39 74 64 74 185 0 99 -2 110 -25 140 -48 63 -111 78 -176 42z"/>
<path d="M2063 4525 c-17 -14 -39 -45 -48 -69 -17 -44 -17 -46 6 -92 31 -60
76 -87 140 -81 50 4 109 46 109 78 0 10 5 21 10 24 6 3 10 17 10 30 0 13 -4
27 -10 30 -5 3 -10 15 -10 25 0 10 -17 32 -37 49 -50 41 -122 44 -170 6z"/>
<path d="M2700 4402 c-52 -40 -160 -149 -160 -161 0 -5 -4 -11 -9 -13 -9 -3
-15 -51 -12 -98 1 -29 52 -90 75 -90 8 0 18 -4 21 -10 3 -5 19 -10 35 -10 16
0 32 5 35 10 3 6 13 10 21 10 8 0 54 40 102 88 94 93 107 119 93 192 -18 98
-125 142 -201 82z"/>
<path d="M3874 4273 c-12 -2 -33 -17 -48 -32 -22 -23 -28 -38 -28 -75 0 -44
10 -62 137 -252 139 -208 172 -244 225 -244 63 0 128 78 114 136 -4 15 -52 94
-107 178 -55 83 -116 175 -135 204 -19 29 -44 59 -56 67 -25 16 -73 24 -102
18z"/>
<path d="M5255 4270 c-20 -6 -104 -83 -243 -223 -203 -205 -212 -216 -212
-253 0 -80 62 -133 137 -119 32 6 68 37 240 208 112 110 210 216 219 235 42
88 -44 180 -141 152z"/>
<path d="M4795 2825 c-51 -26 -75 -64 -75 -119 0 -44 4 -53 40 -88 35 -32 47
-38 85 -38 39 0 50 5 85 40 34 34 40 46 40 83 0 53 -27 99 -73 120 -43 21 -64
21 -102 2z"/>
<path d="M4485 2473 c-46 -12 -85 -70 -85 -126 0 -41 49 -100 97 -115 66 -22
144 30 159 105 7 33 -15 90 -45 117 -19 17 -93 28 -126 19z"/>
</g>
</svg>
